<svg version="1.1"
	 xmlns="http://www.w3.org/2000/svg"
	 viewBox="0 0 100 100">
	<path d="M90,14.6v71c0,1.2-0.4,2.2-1.3,3.1c-0.8,0.9-1.9,1.3-3.2,1.3H65.2V59h10.4l1.6-11.9h-12v-7.7c0-2,0.4-3.4,1.1-4.3
		c1-1.1,2.6-1.6,4.8-1.6h6.4V22.6c-2.5-0.2-5.6-0.4-9.3-0.4c-4.6,0-8.4,1.4-11.3,4.1c-2.9,2.7-4.3,6.7-4.3,11.8v8.9H42.3V59h10.4v31
		H14.5c-1.3,0-2.4-0.4-3.2-1.3c-0.8-0.9-1.3-1.9-1.3-3.1v-71c0-1.3,0.4-2.4,1.3-3.2c0.8-0.8,1.9-1.2,3.2-1.2h71.1
		c1.2,0,2.2,0.4,3.1,1.2C89.6,12.2,90,13.3,90,14.6z"/>
</svg>
