<svg version="1.1"
	 xmlns="http://www.w3.org/2000/svg"
	 viewBox="0 0 100 100">
	<path d="M90,50.1c0,7.7-0.1,13.3-0.3,16.7s-0.7,6.3-1.5,8.8c-1.1,3-2.7,5.6-4.9,7.8c-2.2,2.2-4.8,3.8-7.8,4.9
		c-2.5,0.8-5.4,1.3-8.8,1.5S57.7,90,50,90c-7.7,0-13.3-0.1-16.7-0.3c-3.4-0.2-6.3-0.7-8.8-1.7c-3-1-5.6-2.5-7.8-4.7
		c-2.2-2.2-3.8-4.8-4.9-7.8c-0.8-2.5-1.3-5.4-1.5-8.8c-0.2-3.4-0.3-8.9-0.3-16.7c0-7.7,0.1-13.3,0.3-16.7c0.2-3.4,0.7-6.3,1.5-8.8
		c1.1-3,2.7-5.6,4.9-7.8c2.2-2.2,4.8-3.8,7.8-4.9c2.5-0.8,5.4-1.3,8.8-1.5c3.4-0.2,9-0.3,16.7-0.3c7.7,0,13.3,0.1,16.7,0.3
		s6.3,0.7,8.8,1.5c3,1.1,5.6,2.7,7.8,4.9c2.2,2.2,3.8,4.8,4.9,7.8c0.8,2.5,1.4,5.5,1.6,8.9C89.9,36.9,90,42.4,90,50.1z M82.7,64
		c0.1-2.6,0.2-6.3,0.2-11.1v-5.7c0-4.9-0.1-8.6-0.2-11.1c-0.2-4.5-0.7-7.7-1.4-9.6c-1.4-3.7-4-6.2-7.7-7.7c-1.9-0.7-5.1-1.2-9.6-1.4
		c-2.6-0.1-6.3-0.2-11.1-0.2h-5.7c-4.8,0-8.5,0.1-11.1,0.2c-4.4,0.2-7.6,0.7-9.6,1.4c-3.7,1.4-6.3,4-7.7,7.7
		c-0.7,1.9-1.2,5.1-1.4,9.6c-0.1,2.6-0.2,6.3-0.2,11.1V53c0,4.8,0.1,8.4,0.2,11.1c0.2,4.4,0.7,7.6,1.4,9.6c1.5,3.7,4.1,6.2,7.7,7.7
		c2,0.7,5.2,1.2,9.6,1.4c2.6,0.1,6.3,0.2,11.1,0.2h5.7c4.9,0,8.6-0.1,11.1-0.2c4.5-0.2,7.7-0.7,9.6-1.4c3.7-1.5,6.3-4.1,7.7-7.7
		C82,71.6,82.4,68.4,82.7,64z M60.3,32.4c3.2,1.8,5.7,4.3,7.5,7.5c1.8,3.2,2.8,6.6,2.8,10.3c0,3.7-0.9,7.1-2.8,10.3
		c-1.8,3.2-4.3,5.6-7.5,7.5c-3.2,1.8-6.6,2.8-10.3,2.8c-3.7,0-7.1-0.9-10.3-2.8c-3.2-1.8-5.7-4.3-7.5-7.5c-1.8-3.1-2.8-6.6-2.8-10.3
		c0-3.7,0.9-7.1,2.8-10.3c1.8-3.1,4.3-5.6,7.5-7.5c3.2-1.8,6.6-2.8,10.3-2.8C53.7,29.6,57.1,30.5,60.3,32.4z M59.5,59.6
		c2.6-2.6,3.9-5.8,3.9-9.5c0-3.7-1.3-6.8-3.9-9.5c-2.6-2.6-5.8-3.9-9.5-3.9c-3.7,0-6.8,1.3-9.5,3.9c-2.6,2.6-3.9,5.8-3.9,9.5
		c0,3.7,1.3,6.8,3.9,9.5c2.6,2.6,5.8,3.9,9.5,3.9C53.7,63.5,56.8,62.2,59.5,59.6z M74.8,25.3c-1-1-2.1-1.4-3.4-1.4
		c-1.3,0-2.4,0.5-3.4,1.4c-1,1-1.4,2.1-1.4,3.4c0,1.3,0.5,2.4,1.4,3.4c1,1,2.1,1.4,3.4,1.4c1.3,0,2.4-0.5,3.3-1.4
		c0.9-1,1.4-2.1,1.5-3.4C76.2,27.4,75.8,26.3,74.8,25.3z"/>
</svg>
