<svg version="1.1"
	 xmlns="http://www.w3.org/2000/svg"
	 viewBox="0 0 100 100">
	<path d="M81.7,30.3c0.1,0.5,0.2,1.3,0.2,2.5c0,9.1-1.8,17.9-5.5,26.4c-3.8,9-9,16.1-15.8,21.4c-7.4,5.9-15.9,8.9-25.5,8.9
		c-9.2,0-17.6-3-25.2-8.9c1.1,0.1,2.4,0.2,3.9,0.2c7.6,0,14.4-2.8,20.5-8.5c-3.6,0-6.9-1.3-9.6-3.9c-2.8-2.6-4.7-5.9-5.7-9.8
		c1,0.1,2,0.2,3,0.2c1.5,0,2.9-0.2,4.4-0.6c-3.8-1-6.9-3.4-9.4-7c-2.5-3.7-3.8-7.8-3.8-12.5v-0.4c2.3,1.6,4.7,2.5,7.3,2.7
		c-2.2-1.9-4-4.3-5.3-7.2c-1.4-2.9-2-6.1-2-9.6c0-3.5,0.8-6.8,2.3-10c4.1,6.2,9,11.1,14.9,14.8c5.9,3.7,12.2,5.7,18.8,6.1
		c-0.2-1.5-0.3-3-0.3-4.6c0-3.5,0.7-6.9,2.2-10c1.5-3.1,3.4-5.5,5.9-7.3c2.5-1.8,5.2-2.7,8.1-2.7c2.4,0,4.6,0.6,6.6,1.7
		c2,1.1,3.8,2.7,5.4,4.6c3.8-0.9,7.2-2.5,10.5-4.7c-1.3,4.7-3.6,8.4-7.2,11c3.1-0.5,6.3-1.6,9.4-3.2C87.7,23.9,84.9,27.4,81.7,30.3z
		"/>
</svg>
