<?xml version="1.0" encoding="utf-8"?>
<!-- Generator: Adobe Illustrator 24.0.1, SVG Export Plug-In . SVG Version: 6.00 Build 0)  -->
<svg version="1.1" id="Layer_1" xmlns="http://www.w3.org/2000/svg" xmlns:xlink="http://www.w3.org/1999/xlink" x="0px" y="0px"
	 width="200px" height="42.8px" viewBox="0 0 200 42.8" style="enable-background:new 0 0 200 42.8;" xml:space="preserve">
<style type="text/css">
	.st0{fill:none;}
</style>
<g>
	<rect x="78.3" y="0.9" class="st0" width="93.2" height="20"/>
	<path d="M94.5,13.2l-0.7,2.5h-11c-1.1,0-1.9-0.4-2.4-1.1c-0.4-0.5-0.5-1-0.5-1.7c0-0.3,0-0.6,0.1-1l1.9-7.2c0.3-1,0.9-1.9,1.8-2.7
		s2-1.1,3-1.1h11L97,3.4H86c-0.3,0-0.7,0.1-1,0.4s-0.5,0.6-0.6,0.9l-1.9,7.2c0,0.1-0.1,0.3-0.1,0.4c0,0.2,0.1,0.4,0.2,0.6
		c0.2,0.3,0.4,0.4,0.8,0.4L94.5,13.2L94.5,13.2z"/>
	<path d="M99.3,0.9h2.6L98,15.7h-2.6L99.3,0.9z"/>
	<path d="M111.3,15.7h-7.9c-1.1,0-1.9-0.4-2.4-1.1c-0.4-0.5-0.5-1-0.5-1.7c0-0.3,0-0.6,0.1-1l1-3.6c0.3-1,0.9-1.9,1.8-2.7
		c0.9-0.7,2-1.1,3-1.1h7.9L111.3,15.7z M103.1,11.9c0,0.1-0.1,0.3-0.1,0.4c0,0.2,0.1,0.4,0.2,0.6c0.2,0.3,0.4,0.4,0.8,0.4h5.4L111,7
		h-5.4c-0.3,0-0.7,0.1-1,0.4S104.1,8,104,8.3L103.1,11.9z"/>
	<path d="M115.4,15.7h-2.6l2-7.4c0.3-1,0.9-1.9,1.8-2.7c0.9-0.7,2-1.1,3-1.1h4.1c1.1,0,1.9,0.4,2.4,1.1c0.4,0.5,0.5,1.1,0.5,1.7
		c0,0.3,0,0.6-0.1,1l-2,7.4H122l2-7.4c0-0.1,0.1-0.2,0.1-0.4c0-0.2-0.1-0.4-0.2-0.6c-0.2-0.3-0.5-0.4-0.8-0.4H119
		c-0.3,0-0.7,0.1-1,0.4s-0.5,0.6-0.6,0.9L115.4,15.7z"/>
	<path d="M138.6,13.2l-0.7,2.5H130c-1.1,0-1.9-0.4-2.4-1.1c-0.4-0.5-0.5-1-0.5-1.7c0-0.3,0-0.6,0.1-1l1-3.6c0.3-1,0.9-1.9,1.8-2.7
		c0.9-0.7,2-1.1,3-1.1h8L140.3,7h-7.9c-0.3,0-0.7,0.1-1,0.4s-0.5,0.6-0.6,0.9l-1,3.6c0,0.1-0.1,0.3-0.1,0.4c0,0.2,0.1,0.4,0.2,0.6
		c0.2,0.3,0.4,0.4,0.8,0.4L138.6,13.2L138.6,13.2z"/>
	<path d="M151.7,4.5h2.6L151.2,16c-0.3,1-0.9,1.9-1.8,2.7c-0.9,0.7-2,1.1-3,1.1h-5.9l0.7-2.5h5.9c0.3,0,0.7-0.1,1-0.4
		s0.5-0.6,0.6-0.9l0.1-0.3h-5.4c-1.1,0-1.9-0.4-2.4-1.1c-0.4-0.5-0.5-1-0.5-1.7c0-0.3,0-0.6,0.1-1l2-7.4h2.6l-2,7.4
		c0,0.1-0.1,0.3-0.1,0.4c0,0.2,0.1,0.4,0.2,0.6c0.2,0.3,0.4,0.4,0.8,0.4h5.4L151.7,4.5z"/>
	<path d="M157.1,3.4h-1l0.7-2.5h2.6l-0.7,2.8c-0.1,0.3-0.3,0.6-0.6,0.9c-0.3,0.2-0.6,0.4-1,0.4h-0.6L156,3.6h0.9
		C157,3.5,157.1,3.4,157.1,3.4z"/>
	<path d="M162.7,4.5h7.9L170,7h-7.9c-0.1,0-0.1,0-0.2,0.1s-0.1,0.1-0.1,0.2l-0.3,1.3v0.1v0.1c0,0.1,0.1,0.1,0.2,0.1h6.2
		c0.8,0,1.4,0.3,1.8,0.8c0.3,0.4,0.4,0.8,0.4,1.2c0,0.2,0,0.5-0.1,0.7l-0.3,1.3c-0.2,0.8-0.7,1.4-1.3,2c-0.7,0.5-1.4,0.8-2.2,0.8h-9
		l0.7-2.5h9c0.1,0,0.1,0,0.2-0.1s0.1-0.1,0.1-0.2l0.3-1.3v-0.1v-0.1c0-0.1-0.1-0.1-0.2-0.1h-6.2c-0.8,0-1.4-0.3-1.8-0.8
		c-0.3-0.4-0.4-0.8-0.4-1.2c0-0.2,0-0.5,0.1-0.7l0.3-1.3c0.2-0.8,0.7-1.4,1.3-2C161.2,4.8,161.9,4.5,162.7,4.5z"/>
</g>
<g>
	<rect x="134.4" y="30.3" class="st0" width="65.7" height="9.6"/>
	<path d="M142.3,30.3l1.1,8.4h-1.5l-0.3-2.3h-3.8l-1.5,2.3h-1.5l5.6-8.4C140.4,30.3,142.3,30.3,142.3,30.3z M140.9,31.7l-2.2,3.3
		h2.7l-0.4-3.3H140.9z"/>
	<path d="M151.2,32.4h1.5l-1.1,4.2c-0.2,0.6-0.5,1.1-1,1.5s-1.1,0.6-1.7,0.6h-2.3c-0.6,0-1.1-0.2-1.4-0.6c-0.2-0.3-0.3-0.6-0.3-1
		c0-0.2,0-0.4,0.1-0.6l1.1-4.2h1.5l-1.1,4.2c0,0.1,0,0.1,0,0.2c0,0.1,0,0.2,0.1,0.3s0.3,0.2,0.5,0.2h2.3c0.2,0,0.4-0.1,0.6-0.2
		s0.3-0.3,0.4-0.5L151.2,32.4z"/>
	<path d="M157.9,32.4l-0.4,1.4h-2.9l-0.8,2.8c0,0.1,0,0.1,0,0.2c0,0.1,0,0.2,0.1,0.3s0.3,0.2,0.5,0.2h2.2l-0.4,1.4H154
		c-0.6,0-1.1-0.2-1.4-0.6c-0.2-0.3-0.3-0.6-0.3-1c0-0.2,0-0.4,0.1-0.6l1.7-6.3h1.5l-0.6,2.1L157.9,32.4L157.9,32.4z"/>
	<path d="M164.4,36.6c-0.2,0.6-0.5,1.1-1,1.5s-1.1,0.6-1.7,0.6h-2.3c-0.6,0-1.1-0.2-1.4-0.6c-0.2-0.3-0.3-0.6-0.3-1
		c0-0.2,0-0.4,0.1-0.6l0.6-2.1c0.2-0.6,0.5-1.1,1-1.5s1.1-0.6,1.7-0.6h2.3c0.6,0,1.1,0.2,1.4,0.6c0.2,0.3,0.3,0.6,0.3,1
		c0,0.2,0,0.4-0.1,0.6L164.4,36.6z M159.2,36.6c0,0.1,0,0.1,0,0.2c0,0.1,0,0.2,0.1,0.3s0.3,0.2,0.5,0.2h2.3c0.2,0,0.4-0.1,0.6-0.2
		s0.3-0.3,0.4-0.5l0.6-2.1c0-0.1,0-0.1,0-0.2c0-0.1,0-0.2-0.1-0.3s-0.3-0.2-0.5-0.2h-2.3c-0.2,0-0.4,0.1-0.6,0.2s-0.3,0.3-0.4,0.5
		L159.2,36.6z"/>
	<path d="M174.5,33.8l-0.7,2.8c-0.2,0.6-0.5,1.1-1,1.5s-1.1,0.6-1.7,0.6H167c-0.6,0-1.1-0.2-1.4-0.6c-0.2-0.3-0.3-0.6-0.3-1
		c0-0.2,0-0.4,0.1-0.6l1.1-4.1c0.2-0.6,0.5-1.1,1-1.5s1.1-0.6,1.7-0.6h6.3l-0.4,1.4h-6.3c-0.2,0-0.4,0.1-0.6,0.2
		c-0.2,0.1-0.3,0.3-0.4,0.5l-1.1,4.1c0,0.1,0,0.1,0,0.2c0,0.1,0,0.2,0.1,0.3s0.3,0.2,0.5,0.2h4.1c0.2,0,0.4-0.1,0.6-0.2
		s0.3-0.3,0.4-0.5l0.4-1.3h-2.9l0.4-1.4H174.5z"/>
	<path d="M176.4,30.3h1.5l-2.3,8.4h-1.5L176.4,30.3z"/>
	<path d="M183.2,38.7h-4.5c-0.6,0-1.1-0.2-1.4-0.6c-0.2-0.3-0.3-0.6-0.3-1c0-0.2,0-0.4,0.1-0.6l0.6-2.1c0.2-0.6,0.5-1.1,1-1.5
		s1.1-0.6,1.7-0.6h4.5L183.2,38.7z M178.5,36.6c0,0.1,0,0.1,0,0.2c0,0.1,0,0.2,0.1,0.3s0.3,0.2,0.5,0.2h3.1l1-3.6H180
		c-0.2,0-0.4,0.1-0.6,0.2s-0.3,0.3-0.4,0.5L178.5,36.6z"/>
	<path d="M187.4,32.4h4.5l-0.4,1.4H187h-0.1l-0.1,0.1l-0.2,0.7c0,0,0,0,0,0.1v0.1h0.1h3.5c0.5,0,0.8,0.2,1,0.5
		c0.1,0.2,0.2,0.4,0.2,0.7c0,0.1,0,0.3-0.1,0.4l-0.2,0.7c-0.1,0.4-0.4,0.8-0.8,1.1s-0.8,0.5-1.3,0.5h-5.1l0.4-1.4h5.1h0.1l0.1-0.1
		l0.2-0.7c0,0,0,0,0-0.1c0,0,0,0,0-0.1h-0.1h-3.5c-0.5,0-0.8-0.2-1-0.5c-0.2-0.2-0.2-0.4-0.2-0.7c0-0.1,0-0.3,0.1-0.4l0.2-0.7
		c0.1-0.4,0.4-0.8,0.8-1.1S186.9,32.4,187.4,32.4z"/>
	<path d="M195,32.4h4.5l-0.4,1.4h-4.5h-0.1l-0.1,0.1l-0.2,0.7c0,0,0,0,0,0.1v0.1h0.1h3.5c0.5,0,0.8,0.2,1,0.5
		c0.1,0.2,0.2,0.4,0.2,0.7c0,0.1,0,0.3-0.1,0.4l-0.2,0.7c-0.1,0.4-0.4,0.8-0.8,1.1s-0.8,0.5-1.3,0.5h-5.1l0.4-1.4h5.1h0.1l0.1-0.1
		l0.2-0.7c0,0,0,0,0-0.1c0,0,0,0,0-0.1h-0.1H194c-0.5,0-0.8-0.2-1-0.5c-0.2-0.2-0.2-0.4-0.2-0.7c0-0.1,0-0.3,0.1-0.4l0.2-0.7
		c0.1-0.4,0.4-0.8,0.8-1.1S194.5,32.4,195,32.4z"/>
</g>
<g>
	<g>
		<path d="M12.9,0.9c0.4,0,0.9,0.1,1.3,0.2c7.2,2.3,14.6,3.4,22,3.4c7.4,0,14.9-1.2,22-3.4c0.4-0.1,0.9-0.2,1.3-0.2
			c2.1,0,3.9,1.6,4.6,3.9L71.2,30c0.4,1.5,0.3,3-0.3,4.4c-0.6,1.4-1.7,2.3-2.9,2.8c-10.3,3.4-21,5.1-31.7,5.1
			c-10.7,0-21.4-1.7-31.7-5.1c-1.3-0.4-2.3-1.4-2.9-2.8c-0.6-1.4-0.7-2.9-0.3-4.4L8.3,4.8C9,2.5,10.8,0.9,12.9,0.9z M36.2,6.2
			c-7.6,0-15.1-1.2-22.4-3.5c-0.3-0.1-0.6-0.1-0.9-0.1c-1.5,0-2.8,1.1-3.2,2.7L2.6,30.6c-0.3,1-0.2,2.1,0.2,3.1
			c0.4,1,1.2,1.6,2.1,1.9c10.2,3.4,20.7,5.1,31.3,5.1s21.1-1.7,31.3-5.1c0.9-0.3,1.6-1,2.1-1.9c0.4-0.9,0.5-2,0.2-3.1L62.8,5.3
			c-0.5-1.6-1.7-2.7-3.2-2.7c-0.3,0-0.6,0-0.9,0.1C51.3,5,43.8,6.2,36.2,6.2z"/>
	</g>
	<g>
		<g>
			<polygon points="21.7,19.9 22.1,19.5 23.9,23.5 23.8,23.7 			"/>
			<polygon points="25.2,23 25.2,23.2 23.8,23.7 23.9,23.5 			"/>
			<polygon points="26.2,24.1 25.2,23 25.2,23.2 			"/>
		</g>
		<g>
			<polygon points="21.8,20.2 21.1,20.6 22.6,18 22.7,18.1 			"/>
			<polygon points="22.5,17.4 22.6,17.4 22.7,18.1 22.6,18 			"/>
			<polygon points="23.4,16.9 22.5,17.4 22.6,17.4 			"/>
		</g>
		<g>
			<polygon points="22,20.4 21.9,21 20.5,21.7 20.3,21.5 			"/>
			<polygon points="20.3,22.4 20.2,22.3 20.3,21.5 20.5,21.7 			"/>
			<polygon points="19,22.4 20.3,22.4 20.2,22.3 			"/>
		</g>
		<g>
			<polygon points="17.8,18 17.4,18 18.4,16 18.6,15.9 			"/>
			<polygon points="17.7,15.2 17.8,15.2 18.6,15.9 18.4,16 			"/>
			<polygon points="17.9,14 17.7,15.2 17.8,15.2 			"/>
		</g>
		<g>
			<polygon points="22.1,20.6 22,20 24.7,19.7 24.6,20.1 			"/>
			<polygon points="26.3,21.1 24.7,19.7 24.6,20.1 26.2,21.3 			"/>
			<polygon points="27.8,21 26.2,21.3 26.3,21.1 			"/>
		</g>
		<g>
			<polygon points="22.6,20.3 22.4,20.4 23.9,21.8 24,21.5 			"/>
			<polygon points="24.7,21.2 24,21.5 23.9,21.8 			"/>
		</g>
		<g>
			<polygon points="20,12.5 19.9,13 21.4,11.6 21.3,11.4 			"/>
			<polygon points="22.4,11.6 21.3,11.4 21.4,11.6 			"/>
		</g>
		<g>
			<polygon points="16.4,11.2 16.3,10.9 15,11.5 15.2,11.7 			"/>
			<polygon points="14.7,12.8 14.6,12.7 15,11.5 15.2,11.7 			"/>
			<polygon points="14.1,12.8 14.6,12.7 14.7,12.8 14.2,12.9 			"/>
			<polygon points="13.9,13.6 13.8,13.5 14.1,12.8 14.2,12.9 			"/>
			<polygon points="13.2,13.6 13.8,13.5 13.9,13.6 			"/>
		</g>
		<g>
			<polygon points="19.8,30.7 19.6,30.4 18.4,31 18.6,31.2 			"/>
			<polygon points="18.1,32.3 18,32.2 18.4,31 18.6,31.2 			"/>
			<polygon points="17.5,32.3 18,32.2 18.1,32.3 17.6,32.5 			"/>
			<polygon points="17.3,33.2 17.2,33.1 17.5,32.3 17.6,32.5 			"/>
			<polygon points="16.3,33.1 17.2,33.1 17.3,33.2 			"/>
		</g>
		<g>
			<polygon points="25.5,17.3 25.7,17.2 26.6,18.1 26.4,18.1 			"/>
			<polygon points="26.6,19.2 26.8,19.2 26.6,18.1 26.4,18.1 			"/>
			<polygon points="27.2,19.5 26.8,19.2 26.6,19.2 27.1,19.5 			"/>
			<polygon points="27.2,20.2 27.3,20.1 27.2,19.5 27.1,19.5 			"/>
			<polygon points="27.8,20.4 27.3,20.1 27.2,20.2 			"/>
		</g>
		<g>
			<polygon points="21.9,20.6 22.2,19.9 19.5,20.5 19.6,20.9 			"/>
			<polygon points="18.1,22.7 17.9,22.4 19.5,20.5 19.6,20.9 			"/>
			<polygon points="16.1,22.9 16,22.7 17.9,22.4 18.1,22.7 			"/>
			<polygon points="15.4,24.5 16.1,22.9 16,22.7 			"/>
		</g>
		<g>
			<polygon points="21.4,20.4 21.6,19.9 21,18.8 20.8,19 			"/>
			<polygon points="19.8,18.3 19.9,18.1 21,18.8 20.8,19 			"/>
			<polygon points="19.3,16.9 19.4,16.7 19.9,18.1 19.8,18.3 			"/>
			<polygon points="18.5,16.7 19.3,16.9 19.4,16.7 			"/>
		</g>
		<g>
			<polygon points="21.9,21.4 21.6,21.7 21.9,22.4 22,22.2 			"/>
			<polygon points="22.7,22.9 22.5,23 21.9,22.4 22,22.2 			"/>
			<polygon points="22.9,24.4 22.8,24.5 22.5,23 22.7,22.9 			"/>
			<polygon points="23.6,24.7 22.9,24.4 22.8,24.5 			"/>
		</g>
		<g>
			<polygon points="20.3,24.6 20.2,24.3 19.6,24.5 19.8,24.6 			"/>
			<polygon points="19.1,25.3 19.1,25.1 19.6,24.5 19.8,24.6 			"/>
			<polygon points="18.1,25.3 18.1,25.2 19.1,25.1 19.1,25.3 			"/>
			<polygon points="17.8,26.1 18.1,25.3 18.1,25.2 			"/>
		</g>
		<g>
			<polygon points="21.7,19.6 21.7,20.3 18.9,19.3 19,18.8 			"/>
			<polygon points="17.7,17.7 17.6,18.1 18.9,19.3 19,18.8 			"/>
			<polygon points="15.6,18.3 15.5,18.7 17.6,18.1 17.7,17.7 			"/>
			<polygon points="13.7,17.1 13.7,17.5 15.5,18.7 15.6,18.3 			"/>
			<polygon points="11.3,18.4 13.7,17.1 13.7,17.5 			"/>
		</g>
		<g>
			<polygon points="21.9,25.5 22,25.2 22.9,25.4 22.8,25.7 			"/>
			<polygon points="23.6,26.3 23.7,26.1 22.9,25.4 22.8,25.7 			"/>
			<polygon points="24.9,25.9 24.9,25.7 23.7,26.1 23.6,26.3 			"/>
			<polygon points="26.1,26.5 26.1,26.3 24.9,25.7 24.9,25.9 			"/>
			<polygon points="27.5,25.6 26.1,26.5 26.1,26.3 			"/>
		</g>
		<g>
			<polygon points="21.5,16.7 21.5,16.4 22.2,16.2 22.2,16.5 			"/>
			<polygon points="23,16.7 23,16.4 22.2,16.2 22.2,16.5 			"/>
			<polygon points="23.8,15.7 23.8,15.5 23,16.4 23,16.7 			"/>
			<polygon points="24.8,15.8 24.8,15.5 23.8,15.5 23.8,15.7 			"/>
			<polygon points="25.7,14.2 24.8,15.8 24.8,15.5 			"/>
		</g>
		<g>
			<polygon points="21.8,16.5 21.3,16.5 19.8,12.8 20.1,12.5 			"/>
			<polygon points="16.2,11.2 16.3,10.9 20.1,12.5 19.8,12.8 			"/>
			<polygon points="14.3,7.7 16.2,11.2 16.3,10.9 			"/>
			<polygon points="21.9,19.8 21.2,19.8 21.3,16.5 21.8,16.5 			"/>
		</g>
		<g>
			<polygon points="21.8,27.1 22.1,27 23.4,29.1 23.2,29.4 			"/>
			<polygon points="25.8,29.6 25.7,29.9 23.2,29.4 23.4,29.1 			"/>
			<polygon points="27.1,32.5 25.8,29.6 25.7,29.9 			"/>
			<polygon points="21.8,25.5 22.2,25.4 22.1,27 21.8,27.1 			"/>
		</g>
		<g>
			<polygon points="28.3,14.9 28.1,14.6 28.9,12.6 29.2,12.6 			"/>
			<polygon points="28.1,10.2 28.3,10.2 29.2,12.6 28.9,12.6 			"/>
			<polygon points="29.4,8.8 28.1,10.2 28.3,10.2 			"/>
			<polygon points="27,15.6 26.8,15.4 28.1,14.6 28.3,14.9 			"/>
		</g>
		<g>
			<polygon points="18.4,23.3 18.7,23.7 16.9,26.4 16.5,26.3 			"/>
			<polygon points="17.6,30.1 17.4,30.1 16.5,26.3 16.9,26.4 			"/>
			<polygon points="15.1,32.2 17.6,30.1 17.4,30.1 			"/>
			<polygon points="21,22.7 21.2,23.2 18.7,23.7 18.4,23.3 			"/>
		</g>
		<g>
			<polygon points="15.4,20.5 15.1,20.3 13.4,21.7 13.5,22.1 			"/>
			<polygon points="11.1,21.1 11.1,21.4 13.5,22.1 13.4,21.7 			"/>
			<polygon points="9.4,22.8 11.1,21.1 11.1,21.4 			"/>
			<polygon points="15.7,18.5 15.4,18.3 15.1,20.3 15.4,20.5 			"/>
		</g>
		<g>
			<polygon points="22.4,20.4 22,20.3 20.8,23 21.3,23.1 			"/>
			<polygon points="22.1,25.4 21.7,25.4 20.8,23 21.3,23.1 			"/>
			<polygon points="20.7,27.1 20.9,27.2 22.1,25.4 21.7,25.4 			"/>
			<polygon points="20.8,29.4 20.7,29.4 20.7,27.1 20.9,27.2 			"/>
			<polygon points="22.1,30.9 20.7,29.4 20.8,29.4 			"/>
		</g>
		<g>
			<polygon points="26.6,15.7 26.9,15.7 27.2,14.4 26.9,14.5 			"/>
			<polygon points="26.2,13.1 26.4,13 27.2,14.4 26.9,14.5 			"/>
			<polygon points="26.9,11.6 26.7,11.5 26.2,13.1 26.4,13 			"/>
			<polygon points="26.6,10 26.7,10 26.9,11.6 26.7,11.5 			"/>
			<polygon points="25.7,9.3 26.7,10 26.6,10 			"/>
		</g>
		<g>
			<polygon points="22,20.5 21.3,20.5 23.8,17.1 24.1,17.5 			"/>
			<polygon points="25.6,17 25.7,17.4 24.1,17.5 23.8,17.1 			"/>
			<polygon points="26.8,15.4 26.9,15.8 25.7,17.4 25.6,17 			"/>
			<polygon points="29,15.9 28.9,16.3 26.9,15.8 26.8,15.4 			"/>
			<polygon points="29.7,18.5 29.9,18.3 29,15.9 28.9,16.3 			"/>
			<polygon points="31.7,19.1 31.5,19.3 29.7,18.5 29.9,18.3 			"/>
			<polygon points="32.4,21.1 31.5,19.3 31.7,19.1 			"/>
		</g>
		<g>
			<polygon points="14.6,26.1 14.8,25.9 14.3,24.8 14.1,25 			"/>
			<polygon points="13.4,24.6 13.3,24.8 14.1,25 14.3,24.8 			"/>
			<polygon points="12.9,23.6 12.9,23.8 13.3,24.8 13.4,24.6 			"/>
			<polygon points="11.7,23.6 11.8,23.8 12.9,23.8 12.9,23.6 			"/>
			<polygon points="11.2,24.8 11.1,24.7 11.7,23.6 11.8,23.8 			"/>
			<polygon points="10.1,24.9 10.1,25.1 11.2,24.8 11.1,24.7 			"/>
			<polygon points="9.5,25.9 10.1,25.1 10.1,24.9 			"/>
		</g>
		<g>
			<polygon points="21.2,23.4 20.9,23.1 19.9,24.4 20.3,24.6 			"/>
			<polygon points="20.1,26.5 20.3,26.7 20.3,24.6 19.9,24.4 			"/>
			<polygon points="19.1,27.9 19.5,28 20.3,26.7 20.1,26.5 			"/>
			<polygon points="19.5,30.6 19.8,30.4 19.5,28 19.1,27.9 			"/>
			<polygon points="21.2,31.5 21,31.7 19.5,30.6 19.8,30.4 			"/>
			<polygon points="21.5,33.9 21.6,33.8 21.2,31.5 21,31.7 			"/>
			<polygon points="23.1,34.9 21.6,33.8 21.5,33.9 			"/>
		</g>
		<g>
			<polygon points="16.7,26.2 16.7,26.6 14.7,26.1 14.6,25.8 			"/>
			<polygon points="13.1,27.4 12.9,27.1 14.6,25.8 14.7,26.1 			"/>
			<polygon points="11.1,27.2 11.1,27.1 12.9,27.1 13.1,27.4 			"/>
			<polygon points="10.4,28.7 11.1,27.1 11.1,27.2 			"/>
		</g>
		<g>
			<g>
				<polygon points="20.2,32 20,32 19.6,33.7 19.8,33.9 				"/>
				<polygon points="18.1,34.5 18.2,34.7 19.8,33.9 19.6,33.7 				"/>
				<polygon points="17.9,36.1 18.1,34.5 18.2,34.7 				"/>
				<polygon points="19.8,30.6 19.5,30.7 20,32 20.2,32 				"/>
			</g>
			<polygon points="18.2,34.5 18.1,34.7 17.2,34.4 			"/>
		</g>
	</g>
</g>
</svg>
