<?xml version="1.0" encoding="utf-8"?>
<!-- Generator: Adobe Illustrator 24.0.2, SVG Export Plug-In . SVG Version: 6.00 Build 0)  -->
<svg version="1.1" id="Layer_1" xmlns="http://www.w3.org/2000/svg" xmlns:xlink="http://www.w3.org/1999/xlink" x="0px" y="0px"
	 width="100px" height="99.8px" viewBox="0 0 100 99.8" style="enable-background:new 0 0 100 99.8;" xml:space="preserve">
<style type="text/css">
	.st0{fill:#010101;}
</style>
<g>
	<g>
		<path class="st0" d="M16.9,0c0.6,0,1.2,0.2,1.8,0.5C28.9,6,39.4,8.8,50,8.8c10.6,0,21.1-2.8,31.3-8.3C81.9,0.2,82.5,0,83.1,0
			c3,0,5.6,3.8,6.5,9.3l10,60.9c0.6,3.5,0.4,7.3-0.5,10.5c-0.9,3.3-2.4,5.6-4.2,6.7c-14.6,8.2-29.8,12.4-45,12.4
			c-15.2,0-30.4-4.2-45-12.4c-1.8-1-3.3-3.4-4.2-6.7c-0.9-3.3-1-7-0.5-10.5l10-60.9C11.3,3.8,13.9,0,16.9,0z M50,12.8
			c-10.8,0-21.5-2.8-31.8-8.4C17.8,4.2,17.3,4,16.9,4c-2.1,0-3.9,2.6-4.6,6.5l-10,60.9C1.9,74,2,76.6,2.6,78.9
			c0.6,2.3,1.7,4,2.9,4.7C20,91.7,35,95.8,50,95.8c15,0,30-4.1,44.4-12.2c1.3-0.7,2.3-2.4,2.9-4.7c0.6-2.3,0.7-4.9,0.3-7.4l-10-60.9
			C87,6.7,85.2,4,83.1,4c-0.4,0-0.9,0.1-1.3,0.3C71.5,10,60.8,12.8,50,12.8z"/>
	</g>
	<g>
		<g>
			<polygon class="st0" points="29.4,45.8 30,44.9 32.5,54.4 32.4,55 			"/>
			<polygon class="st0" points="34.3,53.3 34.3,53.7 32.4,55 32.5,54.4 			"/>
			<polygon class="st0" points="35.8,56 34.3,53.3 34.3,53.7 			"/>
		</g>
		<g>
			<polygon class="st0" points="29.6,46.6 28.5,47.5 30.6,41.2 30.9,41.4 			"/>
			<polygon class="st0" points="30.5,39.8 30.7,39.9 30.9,41.4 30.6,41.2 			"/>
			<polygon class="st0" points="31.8,38.7 30.5,39.8 30.7,39.9 			"/>
		</g>
		<g>
			<polygon class="st0" points="29.8,47 29.7,48.5 27.7,50.1 27.4,49.6 			"/>
			<polygon class="st0" points="27.4,51.9 27.2,51.5 27.4,49.6 27.7,50.1 			"/>
			<polygon class="st0" points="25.6,51.8 27.4,51.9 27.2,51.5 			"/>
		</g>
		<g>
			<polygon class="st0" points="23.8,41.2 23.2,41.3 24.7,36.4 25,36.3 			"/>
			<polygon class="st0" points="23.7,34.5 23.8,34.4 25,36.3 24.7,36.4 			"/>
			<polygon class="st0" points="23.9,31.5 23.7,34.5 23.8,34.4 			"/>
		</g>
		<g>
			<polygon class="st0" points="29.9,47.5 29.7,46.1 33.7,45.4 33.5,46.2 			"/>
			<polygon class="st0" points="35.9,48.7 33.7,45.4 33.5,46.2 35.8,49.3 			"/>
			<polygon class="st0" points="38,48.4 35.8,49.3 35.9,48.7 			"/>
		</g>
		<g>
			<polygon class="st0" points="30.7,46.9 30.3,47 32.5,50.3 32.6,49.8 			"/>
			<polygon class="st0" points="33.7,49 32.6,49.8 32.5,50.3 			"/>
		</g>
		<g>
			<polygon class="st0" points="26.9,27.9 26.8,29.2 28.9,25.8 28.8,25.4 			"/>
			<polygon class="st0" points="30.4,25.8 28.8,25.4 28.9,25.8 			"/>
		</g>
		<g>
			<polygon class="st0" points="21.9,24.8 21.7,24.1 19.9,25.5 20.2,25.9 			"/>
			<polygon class="st0" points="19.5,28.8 19.3,28.3 19.9,25.5 20.2,25.9 			"/>
			<polygon class="st0" points="18.6,28.8 19.3,28.3 19.5,28.8 18.7,29 			"/>
			<polygon class="st0" points="18.3,30.7 18.2,30.5 18.6,28.8 18.7,29 			"/>
			<polygon class="st0" points="17.3,30.5 18.2,30.5 18.3,30.7 			"/>
		</g>
		<g>
			<polygon class="st0" points="26.7,71.8 26.5,71.2 24.7,72.6 25,73 			"/>
			<polygon class="st0" points="24.3,75.8 24.1,75.4 24.7,72.6 25,73 			"/>
			<polygon class="st0" points="23.4,75.8 24.1,75.4 24.3,75.8 23.5,76.1 			"/>
			<polygon class="st0" points="23.1,77.8 23,77.5 23.4,75.8 23.5,76.1 			"/>
			<polygon class="st0" points="21.8,77.6 23,77.5 23.1,77.8 			"/>
		</g>
		<g>
			<polygon class="st0" points="34.7,39.6 35,39.2 36.4,41.3 36.1,41.5 			"/>
			<polygon class="st0" points="36.4,44.2 36.6,44 36.4,41.3 36.1,41.5 			"/>
			<polygon class="st0" points="37.2,44.7 36.6,44 36.4,44.2 37,44.9 			"/>
			<polygon class="st0" points="37.2,46.5 37.3,46.4 37.2,44.7 37,44.9 			"/>
			<polygon class="st0" points="38.1,46.9 37.3,46.4 37.2,46.5 			"/>
		</g>
		<g>
			<polygon class="st0" points="29.7,47.6 30.1,45.9 26.2,47.2 26.5,48.1 			"/>
			<polygon class="st0" points="24.3,52.4 24,51.9 26.2,47.2 26.5,48.1 			"/>
			<polygon class="st0" points="21.4,53.1 21.3,52.5 24,51.9 24.3,52.4 			"/>
			<polygon class="st0" points="20.4,57 21.4,53.1 21.3,52.5 			"/>
		</g>
		<g>
			<polygon class="st0" points="28.9,46.9 29.2,45.7 28.4,43 28.2,43.6 			"/>
			<polygon class="st0" points="26.7,41.9 26.8,41.4 28.4,43 28.2,43.6 			"/>
			<polygon class="st0" points="26,38.5 26.2,38.2 26.8,41.4 26.7,41.9 			"/>
			<polygon class="st0" points="24.9,38.2 26,38.5 26.2,38.2 			"/>
		</g>
		<g>
			<polygon class="st0" points="29.7,49.4 29.3,50.1 29.7,51.8 29.8,51.3 			"/>
			<polygon class="st0" points="30.8,53 30.6,53.2 29.7,51.8 29.8,51.3 			"/>
			<polygon class="st0" points="31.1,56.5 30.9,56.8 30.6,53.2 30.8,53 			"/>
			<polygon class="st0" points="32.1,57.3 31.1,56.5 30.9,56.8 			"/>
		</g>
		<g>
			<polygon class="st0" points="27.4,57.2 27.2,56.3 26.5,56.8 26.6,57.2 			"/>
			<polygon class="st0" points="25.7,58.7 25.7,58.3 26.5,56.8 26.6,57.2 			"/>
			<polygon class="st0" points="24.3,58.8 24.3,58.6 25.7,58.3 25.7,58.7 			"/>
			<polygon class="st0" points="23.8,60.6 24.3,58.8 24.3,58.6 			"/>
		</g>
		<g>
			<polygon class="st0" points="29.4,45 29.3,46.8 25.4,44.3 25.6,43.1 			"/>
			<polygon class="st0" points="23.7,40.6 23.5,41.6 25.4,44.3 25.6,43.1 			"/>
			<polygon class="st0" points="20.8,41.9 20.6,42.9 23.5,41.6 23.7,40.6 			"/>
			<polygon class="st0" points="18.1,39 18,40 20.6,42.9 20.8,41.9 			"/>
			<polygon class="st0" points="14.7,42.1 18.1,39 18,40 			"/>
		</g>
		<g>
			<polygon class="st0" points="29.6,59.3 29.8,58.6 31.1,59.1 31,59.9 			"/>
			<polygon class="st0" points="32.2,61.3 32.3,60.6 31.1,59.1 31,59.9 			"/>
			<polygon class="st0" points="33.9,60.2 33.9,59.7 32.3,60.6 32.2,61.3 			"/>
			<polygon class="st0" points="35.6,61.7 35.6,61.1 33.9,59.7 33.9,60.2 			"/>
			<polygon class="st0" points="37.6,59.5 35.6,61.7 35.6,61.1 			"/>
		</g>
		<g>
			<polygon class="st0" points="29.1,38.1 29.1,37.4 30.1,36.8 30.1,37.6 			"/>
			<polygon class="st0" points="31.2,38.1 31.2,37.4 30.1,36.8 30.1,37.6 			"/>
			<polygon class="st0" points="32.4,35.7 32.3,35.2 31.2,37.4 31.2,38.1 			"/>
			<polygon class="st0" points="33.8,35.9 33.8,35.3 32.3,35.2 32.4,35.7 			"/>
			<polygon class="st0" points="35,32.1 33.8,35.9 33.8,35.3 			"/>
		</g>
		<g>
			<polygon class="st0" points="29.5,37.5 28.9,37.6 26.7,28.6 27.2,28 			"/>
			<polygon class="st0" points="21.5,24.7 21.8,24.2 27.2,28 26.7,28.6 			"/>
			<polygon class="st0" points="18.9,16.4 21.5,24.7 21.8,24.2 			"/>
			<polygon class="st0" points="29.6,45.7 28.6,45.6 28.9,37.6 29.5,37.5 			"/>
		</g>
		<g>
			<polygon class="st0" points="29.6,63.1 29.9,62.9 31.9,68 31.6,68.6 			"/>
			<polygon class="st0" points="35.2,69.3 35,69.9 31.6,68.6 31.9,68 			"/>
			<polygon class="st0" points="37.1,76.1 35.2,69.3 35,69.9 			"/>
			<polygon class="st0" points="29.6,59.3 30.1,59 29.9,62.9 29.6,63.1 			"/>
		</g>
		<g>
			<polygon class="st0" points="38.8,33.7 38.5,33.1 39.6,28.2 40,28.2 			"/>
			<polygon class="st0" points="38.5,22.5 38.8,22.5 40,28.2 39.6,28.2 			"/>
			<polygon class="st0" points="40.3,19.2 38.5,22.5 38.8,22.5 			"/>
			<polygon class="st0" points="37,35.5 36.6,34.9 38.5,33.1 38.8,33.7 			"/>
		</g>
		<g>
			<polygon class="st0" points="24.7,54.1 25.1,54.9 22.5,61.5 21.9,61.2 			"/>
			<polygon class="st0" points="23.6,70.5 23.2,70.3 21.9,61.2 22.5,61.5 			"/>
			<polygon class="st0" points="20.1,75.3 23.6,70.5 23.2,70.3 			"/>
			<polygon class="st0" points="28.4,52.6 28.7,53.9 25.1,54.9 24.7,54.1 			"/>
		</g>
		<g>
			<polygon class="st0" points="20.4,47.3 20.1,46.8 17.7,50.2 17.8,51 			"/>
			<polygon class="st0" points="14.3,48.8 14.4,49.3 17.8,51 17.7,50.2 			"/>
			<polygon class="st0" points="12,52.9 14.3,48.8 14.4,49.3 			"/>
			<polygon class="st0" points="20.9,42.4 20.5,42.1 20.1,46.8 20.4,47.3 			"/>
		</g>
		<g>
			<polygon class="st0" points="30.4,47 29.8,46.7 28.1,53.3 28.8,53.5 			"/>
			<polygon class="st0" points="29.9,59 29.5,59.1 28.1,53.3 28.8,53.5 			"/>
			<polygon class="st0" points="28,63.1 28.3,63.5 29.9,59 29.5,59.1 			"/>
			<polygon class="st0" points="28.2,68.6 27.9,68.6 28,63.1 28.3,63.5 			"/>
			<polygon class="st0" points="29.9,72.2 27.9,68.6 28.2,68.6 			"/>
		</g>
		<g>
			<polygon class="st0" points="36.4,35.7 36.8,35.6 37.2,32.5 36.8,32.7 			"/>
			<polygon class="st0" points="35.8,29.3 36.1,29.1 37.2,32.5 36.8,32.7 			"/>
			<polygon class="st0" points="36.7,25.7 36.5,25.6 35.8,29.3 36.1,29.1 			"/>
			<polygon class="st0" points="36.3,22 36.5,21.9 36.7,25.7 36.5,25.6 			"/>
			<polygon class="st0" points="35,20.2 36.5,21.9 36.3,22 			"/>
		</g>
		<g>
			<polygon class="st0" points="29.9,47.2 28.8,47.2 32.4,39.1 32.8,40 			"/>
			<polygon class="st0" points="34.9,38.9 35,39.8 32.8,40 32.4,39.1 			"/>
			<polygon class="st0" points="36.6,35.1 36.8,35.8 35,39.8 34.9,38.9 			"/>
			<polygon class="st0" points="39.8,36.3 39.6,37.1 36.8,35.8 36.6,35.1 			"/>
			<polygon class="st0" points="40.8,42.3 41.1,42 39.8,36.3 39.6,37.1 			"/>
			<polygon class="st0" points="43.5,43.8 43.4,44.4 40.8,42.3 41.1,42 			"/>
			<polygon class="st0" points="44.6,48.6 43.4,44.4 43.5,43.8 			"/>
		</g>
		<g>
			<polygon class="st0" points="19.3,60.7 19.6,60.2 18.9,57.7 18.7,58.1 			"/>
			<polygon class="st0" points="17.6,57.1 17.5,57.5 18.7,58.1 18.9,57.7 			"/>
			<polygon class="st0" points="17,54.7 16.8,55.1 17.5,57.5 17.6,57.1 			"/>
			<polygon class="st0" points="15.2,54.7 15.3,55.2 16.8,55.1 17,54.7 			"/>
			<polygon class="st0" points="14.4,57.7 14.3,57.5 15.2,54.7 15.3,55.2 			"/>
			<polygon class="st0" points="12.9,57.9 13,58.2 14.4,57.7 14.3,57.5 			"/>
			<polygon class="st0" points="12.1,60.2 13,58.2 12.9,57.9 			"/>
		</g>
		<g>
			<polygon class="st0" points="28.6,54.3 28.3,53.5 26.8,56.7 27.4,57.2 			"/>
			<polygon class="st0" points="27.1,61.8 27.5,62.1 27.4,57.2 26.8,56.7 			"/>
			<polygon class="st0" points="25.7,65.1 26.2,65.4 27.5,62.1 27.1,61.8 			"/>
			<polygon class="st0" points="26.3,71.7 26.6,71.1 26.2,65.4 25.7,65.1 			"/>
			<polygon class="st0" points="28.7,73.8 28.4,74.4 26.3,71.7 26.6,71.1 			"/>
			<polygon class="st0" points="29.1,79.5 29.3,79.2 28.7,73.8 28.4,74.4 			"/>
			<polygon class="st0" points="31.4,82 29.3,79.2 29.1,79.5 			"/>
		</g>
		<g>
			<polygon class="st0" points="22.2,61 22.3,61.9 19.5,60.8 19.3,60 			"/>
			<polygon class="st0" points="17.1,63.9 17,63.3 19.3,60 19.5,60.8 			"/>
			<polygon class="st0" points="14.4,63.5 14.3,63.2 17,63.3 17.1,63.9 			"/>
			<polygon class="st0" points="13.3,67 14.3,63.2 14.4,63.5 			"/>
		</g>
		<g>
			<g>
				<polygon class="st0" points="27.3,75 26.9,75.1 26.4,79.2 26.6,79.5 				"/>
				<polygon class="st0" points="24.2,81.1 24.4,81.4 26.6,79.5 26.4,79.2 				"/>
				<polygon class="st0" points="24,84.8 24.2,81.1 24.4,81.4 				"/>
				<polygon class="st0" points="26.6,71.6 26.3,71.8 26.9,75.1 27.3,75 				"/>
			</g>
			<polygon class="st0" points="24.4,81.1 24.3,81.4 23,80.7 			"/>
		</g>
	</g>
</g>
<g>
</g>
<g>
</g>
<g>
</g>
<g>
</g>
<g>
</g>
<g>
</g>
</svg>
