<svg version="1.1"
	 xmlns="http://www.w3.org/2000/svg"
	 viewBox="0 0 100 100">
	<path d="M89.7,39l0.1,10.1l-0.1,10.1c-0.3,7.5-0.8,13.1-1.5,16.7c-0.5,2.3-1.4,4.3-2.6,6c-1.3,1.7-2.8,3-4.5,3.6
		c-2.5,0.9-8.5,1.6-17.8,2L50,87.7l-13.3-0.2c-9.3-0.4-15.3-1.1-17.8-2c-1.7-0.7-3.3-1.9-4.5-3.6c-1.3-1.7-2.1-3.8-2.6-6
		c-0.7-3.6-1.2-9.2-1.5-16.7l-0.1-10.1c0-3,0-6.3,0.1-10.1c0.3-7.4,0.8-12.9,1.5-16.5c0.5-2.4,1.4-4.5,2.6-6.2
		c1.3-1.7,2.8-3,4.5-3.6c2.5-0.9,8.5-1.6,17.8-2L50,10.4l13.3,0.2c9.3,0.4,15.3,1.1,17.8,2c1.8,0.7,3.3,1.9,4.5,3.6
		c1.3,1.7,2.1,3.8,2.6,6.2C88.9,26.1,89.4,31.6,89.7,39z M62.7,49.1L41.8,32.7v32.8L62.7,49.1z"/>
</svg>
